<svg width="37" height="37" viewBox="0 0 37 37" fill="none" xmlns="http://www.w3.org/2000/svg">
<path d="M18.4919 8.93294V5.16883C18.4919 4.56171 17.7634 4.2649 17.3451 4.69663L12.2319 9.80988C11.9621 10.0797 11.9621 10.4979 12.2319 10.7678L17.3451 15.881C17.7634 16.2993 18.4919 16.0024 18.4919 15.4088V11.6312C23.5242 11.6312 27.5042 16.2453 26.3979 21.4665C25.7638 24.529 23.2814 26.998 20.2323 27.632C15.4159 28.6439 11.1256 25.3385 10.478 20.8728C10.3971 20.2253 9.83042 19.7261 9.15585 19.7261C8.34637 19.7261 7.69878 20.4411 7.80671 21.2506C8.64318 27.1733 14.2826 31.5581 20.664 30.3168C24.8734 29.4939 28.2597 26.1075 29.0827 21.8982C30.4183 14.9771 25.1702 8.93294 18.4919 8.93294V8.93294ZM17.0079 23.7735H15.8611V19.3753L14.4985 19.7935V18.8626L16.8864 18.0127H17.0079V23.7735ZM22.7822 21.399C22.7822 21.8307 22.7417 22.2085 22.6473 22.5053C22.5528 22.8021 22.4179 23.0719 22.256 23.2743C22.0941 23.4767 21.8783 23.6251 21.6489 23.7195C21.4196 23.814 21.1497 23.8544 20.8529 23.8544C20.5561 23.8544 20.2998 23.814 20.0569 23.7195C19.8141 23.6251 19.6117 23.4767 19.4363 23.2743C19.2609 23.0719 19.126 22.8156 19.0316 22.5053C18.9371 22.195 18.8832 21.8307 18.8832 21.399V20.4006C18.8832 19.9689 18.9236 19.5912 19.0181 19.2943C19.1125 18.9975 19.2474 18.7277 19.4093 18.5253C19.5712 18.323 19.7871 18.1746 20.0164 18.0801C20.2458 17.9857 20.5156 17.9452 20.8124 17.9452C21.1093 17.9452 21.3656 17.9857 21.6084 18.0801C21.8513 18.1746 22.0537 18.323 22.229 18.5253C22.4044 18.7277 22.5393 18.984 22.6338 19.2943C22.7282 19.6047 22.7822 19.9689 22.7822 20.4006V21.399V21.399ZM21.6354 20.2387C21.6354 19.9824 21.6219 19.7665 21.5815 19.5912C21.541 19.4158 21.487 19.2809 21.4196 19.1729C21.3521 19.065 21.2712 18.984 21.1632 18.9436C21.0553 18.9031 20.9474 18.8761 20.8259 18.8761C20.7045 18.8761 20.5831 18.9031 20.4886 18.9436C20.3942 18.984 20.2998 19.065 20.2323 19.1729C20.1649 19.2809 20.1109 19.4158 20.0704 19.5912C20.0299 19.7665 20.0164 19.9824 20.0164 20.2387V21.5474C20.0164 21.8038 20.0299 22.0196 20.0704 22.195C20.1109 22.3704 20.1649 22.5188 20.2323 22.6267C20.2998 22.7347 20.3807 22.8156 20.4886 22.8561C20.5966 22.8966 20.7045 22.9235 20.8259 22.9235C20.9474 22.9235 21.0688 22.8966 21.1632 22.8561C21.2577 22.8156 21.3521 22.7347 21.4196 22.6267C21.487 22.5188 21.541 22.3704 21.568 22.195C21.5949 22.0196 21.6219 21.8038 21.6219 21.5474V20.2387H21.6354Z" fill="white"/>
</svg>
