<svg width="37" height="37" viewBox="0 0 37 37" fill="none" xmlns="http://www.w3.org/2000/svg">
<path d="M5.38086 15.584V21.4147C5.38086 22.2164 6.03681 22.8723 6.83852 22.8723H11.2115L16.0072 27.668C16.9255 28.5864 18.4998 27.9304 18.4998 26.6331V10.351C18.4998 9.05368 16.9255 8.39773 16.0072 9.31606L11.2115 14.1263H6.83852C6.03681 14.1263 5.38086 14.7823 5.38086 15.584ZM25.0593 18.4993C25.0593 15.9193 23.5725 13.7036 21.4151 12.6249V24.3591C23.5725 23.295 25.0593 21.0794 25.0593 18.4993ZM21.4151 7.49398V7.78551C21.4151 8.33942 21.7796 8.82045 22.2897 9.02452C26.0505 10.5259 28.7035 14.2138 28.7035 18.4993C28.7035 22.7849 26.0505 26.4727 22.2897 27.9741C21.765 28.1782 21.4151 28.6592 21.4151 29.2131V29.5047C21.4151 30.423 22.3335 31.0644 23.1789 30.7437C28.1204 28.8633 31.6188 24.0967 31.6188 18.4993C31.6188 12.9019 28.1204 8.13535 23.1789 6.25497C22.3335 5.9197 21.4151 6.57565 21.4151 7.49398V7.49398Z" fill="white"/>
</svg>
