<svg width="24" height="25" viewBox="0 0 24 25" fill="none" xmlns="http://www.w3.org/2000/svg">
<g clip-path="url(#clip0_420_3624)">
<path d="M18.3002 6.39418C17.9102 6.00418 17.2802 6.00418 16.8902 6.39418L12.0002 11.2742L7.11022 6.38417C6.72022 5.99417 6.09021 5.99417 5.70021 6.38417C5.31021 6.77417 5.31021 7.40418 5.70021 7.79418L10.5902 12.6842L5.70021 17.5742C5.31021 17.9642 5.31021 18.5942 5.70021 18.9842C6.09021 19.3742 6.72022 19.3742 7.11022 18.9842L12.0002 14.0942L16.8902 18.9842C17.2802 19.3742 17.9102 19.3742 18.3002 18.9842C18.6902 18.5942 18.6902 17.9642 18.3002 17.5742L13.4102 12.6842L18.3002 7.79418C18.6802 7.41418 18.6802 6.77418 18.3002 6.39418Z" fill="white"/>
</g>
<defs>
<clipPath id="clip0_420_3624">
<rect width="24" height="24" fill="white" transform="translate(0 0.684204)"/>
</clipPath>
</defs>
</svg>
