<svg width="24" height="25" viewBox="0 0 24 25" fill="none" xmlns="http://www.w3.org/2000/svg">
<path d="M18.5667 10.2947H13.9333V5.66136C13.9333 5.14861 13.7296 4.65686 13.3671 4.29429C13.0045 3.93172 12.5128 3.72803 12 3.72803C11.4872 3.72803 10.9955 3.93172 10.6329 4.29429C10.2704 4.65686 10.0667 5.14861 10.0667 5.66136V10.2947H5.43333C4.92058 10.2947 4.42883 10.4984 4.06626 10.861C3.70369 11.2235 3.5 11.7153 3.5 12.228C3.5 12.7408 3.70369 13.2325 4.06626 13.5951C4.42883 13.9577 4.92058 14.1614 5.43333 14.1614H10.0667V18.7947C10.0667 19.3074 10.2704 19.7992 10.6329 20.1618C10.9955 20.5243 11.4872 20.728 12 20.728C12.5128 20.728 13.0045 20.5243 13.3671 20.1618C13.7296 19.7992 13.9333 19.3074 13.9333 18.7947V14.1614H18.5667C19.0794 14.1614 19.5712 13.9577 19.9337 13.5951C20.2963 13.2325 20.5 12.7408 20.5 12.228C20.5 11.7153 20.2963 11.2235 19.9337 10.861C19.5712 10.4984 19.0794 10.2947 18.5667 10.2947Z" fill="white"/>
</svg>
