<svg width="24" height="25" viewBox="0 0 24 25" fill="none" xmlns="http://www.w3.org/2000/svg">
<g clip-path="url(#clip0_420_3340)">
<path d="M18.3002 5.938C17.9102 5.548 17.2802 5.548 16.8902 5.938L12.0002 10.818L7.11022 5.928C6.72022 5.538 6.09021 5.538 5.70021 5.928C5.31021 6.318 5.31021 6.948 5.70021 7.338L10.5902 12.228L5.70021 17.118C5.31021 17.508 5.31021 18.138 5.70021 18.528C6.09021 18.918 6.72022 18.918 7.11022 18.528L12.0002 13.638L16.8902 18.528C17.2802 18.918 17.9102 18.918 18.3002 18.528C18.6902 18.138 18.6902 17.508 18.3002 17.118L13.4102 12.228L18.3002 7.338C18.6802 6.958 18.6802 6.318 18.3002 5.938Z" fill="white"/>
</g>
<defs>
<clipPath id="clip0_420_3340">
<rect width="24" height="24" fill="white" transform="translate(0 0.228027)"/>
</clipPath>
</defs>
</svg>
