<svg width="24" height="25" viewBox="0 0 24 25" fill="none" xmlns="http://www.w3.org/2000/svg">
<path d="M12.56 8.20465H17.0413C17.7486 8.20465 18.4269 8.4856 18.927 8.9857C19.427 9.4858 19.708 10.1641 19.708 10.8713V17.5613C19.708 18.2686 19.427 18.9468 18.927 19.4469C18.4269 19.947 17.7486 20.228 17.0413 20.228H6.91667C6.20942 20.228 5.53115 19.947 5.03105 19.4469C4.53095 18.9468 4.25 18.2686 4.25 17.5613V10.8713C4.25 10.1641 4.53095 9.4858 5.03105 8.9857C5.53115 8.4856 6.20942 8.20465 6.91667 8.20465H11.0573L8.40333 5.55065C8.33137 5.47873 8.27428 5.39334 8.23531 5.29935C8.19635 5.20537 8.17628 5.10463 8.17625 5.00289C8.17622 4.90114 8.19622 4.80039 8.23513 4.70638C8.27404 4.61237 8.33108 4.52695 8.403 4.45498C8.47492 4.38302 8.56031 4.32593 8.6543 4.28696C8.74828 4.248 8.84902 4.22793 8.95076 4.2279C9.05251 4.22787 9.15326 4.24787 9.24727 4.28678C9.34128 4.32569 9.4267 4.38273 9.49867 4.45465L11.8087 6.76465L14.118 4.45465C14.2633 4.30931 14.4605 4.22766 14.666 4.22766C14.8715 4.22766 15.0687 4.30931 15.214 4.45465C15.3593 4.59999 15.441 4.79711 15.441 5.00265C15.441 5.20819 15.3593 5.40531 15.214 5.55065L12.5593 8.20465H12.56ZM16.8453 13.358C17.1491 13.358 17.4404 13.2373 17.6552 13.0225C17.87 12.8077 17.9907 12.5164 17.9907 12.2127C17.9907 11.9089 17.87 11.6176 17.6552 11.4028C17.4404 11.188 17.1491 11.0673 16.8453 11.0673C16.5416 11.0673 16.2503 11.188 16.0355 11.4028C15.8207 11.6176 15.7 11.9089 15.7 12.2127C15.7 12.5164 15.8207 12.8077 16.0355 13.0225C16.2503 13.2373 16.5416 13.358 16.8453 13.358ZM16.8453 17.3653C16.998 17.369 17.1499 17.3421 17.292 17.2862C17.4342 17.2303 17.5637 17.1466 17.673 17.0399C17.7823 16.9332 17.8692 16.8057 17.9285 16.665C17.9878 16.5242 18.0183 16.3731 18.0183 16.2203C18.0183 16.0676 17.9878 15.9164 17.9285 15.7756C17.8692 15.6349 17.7823 15.5074 17.673 15.4007C17.5637 15.294 17.4342 15.2103 17.292 15.1544C17.1499 15.0985 16.998 15.0716 16.8453 15.0753C16.5464 15.0825 16.2622 15.2063 16.0534 15.4203C15.8445 15.6342 15.7276 15.9213 15.7276 16.2203C15.7276 16.5193 15.8445 16.8064 16.0534 17.0204C16.2622 17.2343 16.5464 17.3581 16.8453 17.3653Z" fill="white"/>
</svg>
