<svg width="24" height="25" viewBox="0 0 24 25" fill="none" xmlns="http://www.w3.org/2000/svg">
<path d="M14.5773 16.4527C11.9553 18.294 8.312 18.0434 5.968 15.6994C3.344 13.0754 3.344 8.82069 5.968 6.19603C8.59267 3.57203 12.848 3.57203 15.472 6.19603C17.69 8.41403 18.0333 11.7974 16.502 14.376L19.542 17.4147C19.6659 17.5385 19.7641 17.6855 19.8312 17.8473C19.8982 18.0091 19.9327 18.1826 19.9327 18.3577C19.9327 18.5328 19.8982 18.7063 19.8312 18.8681C19.7641 19.0299 19.6659 19.1769 19.542 19.3007L19.426 19.416C19.176 19.666 18.8369 19.8064 18.4833 19.8064C18.1298 19.8064 17.7907 19.666 17.5407 19.416L14.5773 16.4527ZM10.72 15.546C11.9395 15.546 13.109 15.0616 13.9713 14.1993C14.8336 13.337 15.318 12.1675 15.318 10.948C15.318 9.72856 14.8336 8.55904 13.9713 7.69675C13.109 6.83446 11.9395 6.35003 10.72 6.35003C9.50054 6.35003 8.33102 6.83446 7.46872 7.69675C6.60643 8.55904 6.122 9.72856 6.122 10.948C6.122 12.1675 6.60643 13.337 7.46872 14.1993C8.33102 15.0616 9.50054 15.546 10.72 15.546Z" fill="white"/>
</svg>
