<svg width="24" height="25" viewBox="0 0 24 25" fill="none" xmlns="http://www.w3.org/2000/svg">
<path d="M16.4733 13.608C16.6602 13.4249 16.809 13.2064 16.911 12.9654C17.0129 12.7244 17.0661 12.4656 17.0674 12.2039C17.0688 11.9422 17.0182 11.6828 16.9187 11.4408C16.8191 11.1988 16.6726 10.9789 16.4875 10.7938C16.3025 10.6088 16.0826 10.4622 15.8406 10.3627C15.5985 10.2632 15.3392 10.2126 15.0775 10.2139C14.8158 10.2152 14.5569 10.2684 14.3159 10.3704C14.0749 10.4724 13.8565 10.6211 13.6733 10.808C13.3082 11.1806 13.1049 11.6822 13.1075 12.2039C13.1101 12.7255 13.3185 13.2251 13.6874 13.594C14.0563 13.9628 14.5558 14.1712 15.0775 14.1739C15.5991 14.1765 16.1008 13.9732 16.4733 13.608ZM8.29867 13.608C8.48558 13.4249 8.63432 13.2064 8.7363 12.9654C8.83827 12.7244 8.89146 12.4656 8.89278 12.2039C8.8941 11.9422 8.84353 11.6828 8.744 11.4408C8.64446 11.1988 8.49793 10.9789 8.31288 10.7938C8.12783 10.6088 7.90793 10.4622 7.6659 10.3627C7.42387 10.2632 7.16451 10.2126 6.90281 10.2139C6.64111 10.2152 6.38227 10.2684 6.14126 10.3704C5.90024 10.4724 5.68184 10.6211 5.49867 10.808C5.13354 11.1806 4.9302 11.6822 4.93283 12.2039C4.93547 12.7255 5.14386 13.2251 5.51274 13.594C5.88161 13.9628 6.38115 14.1712 6.90281 14.1739C7.42447 14.1765 7.92609 13.9732 8.29867 13.608ZM12.414 6.73469C12.231 6.54727 12.0127 6.39801 11.7716 6.29559C11.5306 6.19316 11.2716 6.13959 11.0097 6.138C10.7478 6.1364 10.4881 6.1868 10.2458 6.28628C10.0035 6.38576 9.7834 6.53234 9.59817 6.71753C9.41294 6.90271 9.26631 7.12282 9.16677 7.36509C9.06723 7.60736 9.01677 7.86697 9.0183 8.12889C9.01984 8.39081 9.07334 8.64981 9.17571 8.8909C9.27808 9.13199 9.42728 9.35036 9.61467 9.53336C9.9873 9.89727 10.4884 10.0996 11.0092 10.0966C11.53 10.0935 12.0287 9.88532 12.397 9.51706C12.7654 9.14881 12.9737 8.6502 12.9769 8.12936C12.9801 7.60852 12.7778 7.10741 12.414 6.73469ZM12.414 14.9094C12.231 14.7219 12.0127 14.5727 11.7716 14.4703C11.5306 14.3678 11.2716 14.3143 11.0097 14.3127C10.7478 14.3111 10.4881 14.3615 10.2458 14.461C10.0035 14.5604 9.7834 14.707 9.59817 14.8922C9.41294 15.0774 9.26631 15.2975 9.16677 15.5398C9.06723 15.782 9.01677 16.0416 9.0183 16.3036C9.01984 16.5655 9.07334 16.8245 9.17571 17.0656C9.27808 17.3067 9.42728 17.525 9.61467 17.708C9.9873 18.0719 10.4884 18.2743 11.0092 18.2713C11.53 18.2682 12.0287 18.06 12.397 17.6917C12.7654 17.3235 12.9737 16.8249 12.9769 16.304C12.9801 15.7832 12.7778 15.2821 12.414 14.9094ZM11.3847 11.8234C11.3323 11.771 11.2702 11.7294 11.2017 11.701C11.1333 11.6726 11.06 11.658 10.9859 11.658C10.9118 11.658 10.8385 11.6725 10.77 11.7008C10.7016 11.7292 10.6394 11.7707 10.587 11.823C10.5346 11.8754 10.493 11.9375 10.4647 12.006C10.4363 12.0744 10.4217 12.1477 10.4216 12.2218C10.4216 12.2959 10.4362 12.3692 10.4645 12.4377C10.4928 12.5061 10.5343 12.5683 10.5867 12.6207C10.6924 12.7265 10.8358 12.786 10.9854 12.7861C11.135 12.7861 11.2785 12.7268 11.3843 12.621C11.4902 12.5153 11.5496 12.3719 11.5497 12.2223C11.5498 12.0727 11.4904 11.9292 11.3847 11.8234ZM23.4247 11.394C21.2047 16.0027 17.9813 18.0127 15.668 18.8874C13.9547 19.5347 12.4933 19.6727 11.702 19.6927C11.47 19.714 11.2367 19.728 11.0007 19.728C6.858 19.728 3.5 16.37 3.5 12.228C3.5 8.08603 6.858 4.72803 11 4.72803C15.1427 4.72803 18.5 8.08603 18.5 12.228C18.502 13.9398 17.9151 15.6003 16.838 16.9307C18.726 15.856 20.734 14.0094 22.2633 10.8354C22.3429 10.6908 22.4749 10.5822 22.632 10.532C22.7892 10.4817 22.9597 10.4935 23.1084 10.5651C23.2571 10.6366 23.3728 10.7624 23.4316 10.9166C23.4904 11.0708 23.4879 11.2416 23.4247 11.394Z" fill="white"/>
</svg>
