<svg width="37" height="37" viewBox="0 0 37 37" fill="none" xmlns="http://www.w3.org/2000/svg">
<path d="M27.9157 19.7449C27.2349 19.7449 26.6767 20.2486 26.5814 20.9158C25.9279 25.5041 21.4485 28.867 16.479 27.6689C13.4156 26.9336 11.1555 24.5782 10.502 21.5012C9.39916 16.2322 13.4156 11.5758 18.494 11.5758V15.3745C18.494 15.9871 19.2292 16.2867 19.6513 15.851L24.8114 10.6909C25.0837 10.4186 25.0837 9.9965 24.8114 9.7242L19.6513 4.56409C19.2292 4.14202 18.494 4.44155 18.494 5.05423V8.85283C11.7682 8.85283 6.45831 14.9524 7.81981 21.9233C8.63672 26.1576 11.7682 29.4116 15.9752 30.351C22.5513 31.8215 28.433 27.3557 29.2772 21.2698C29.3997 20.4665 28.7326 19.7449 27.9157 19.7449ZM16.9964 23.8294V18.0158H16.8738L14.464 18.8735V19.813L15.8391 19.3909V23.8294H16.9964ZM21.6527 18.0839C21.4077 17.9885 21.149 17.9477 20.8494 17.9477C20.5499 17.9477 20.2912 17.9885 20.0461 18.0839C19.8011 18.1792 19.5968 18.3289 19.4335 18.5331C19.2701 18.7374 19.1203 18.9961 19.0386 19.3092C18.9569 19.6224 18.9025 19.99 18.9025 20.4256V21.4332C18.9025 21.8688 18.9569 22.2501 19.0522 22.5496C19.1476 22.8491 19.2837 23.1214 19.4607 23.3257C19.6377 23.5299 19.8419 23.6796 20.087 23.775C20.3321 23.8703 20.5908 23.9111 20.8903 23.9111C21.1898 23.9111 21.4485 23.8703 21.6936 23.775C21.9386 23.6796 22.1429 23.5299 22.3062 23.3257C22.4696 23.1214 22.6058 22.8627 22.7011 22.5496C22.7964 22.2365 22.8372 21.8688 22.8372 21.4332V20.4256C22.8372 19.99 22.7828 19.6087 22.6875 19.3092C22.5922 19.0097 22.456 18.7374 22.279 18.5331C22.102 18.3289 21.8842 18.1792 21.6527 18.0839ZM21.6663 21.5829C21.6663 21.8416 21.6527 22.0595 21.6119 22.2364C21.571 22.4134 21.5302 22.5632 21.4621 22.6721C21.394 22.7811 21.3123 22.8627 21.2034 22.9036C21.0945 22.9444 20.9856 22.9717 20.8631 22.9717C20.7405 22.9717 20.618 22.9444 20.5227 22.9036C20.4274 22.8627 20.3321 22.7811 20.264 22.6721C20.1959 22.5632 20.1415 22.4134 20.1006 22.2364C20.0598 22.0595 20.0461 21.8416 20.0461 21.5829V20.2623C20.0461 20.0036 20.0598 19.7857 20.1006 19.6087C20.1415 19.4317 20.1823 19.2956 20.264 19.1867C20.3457 19.0778 20.4138 18.9961 20.5227 18.9552C20.6316 18.9144 20.7405 18.8871 20.8631 18.8871C20.9856 18.8871 21.1081 18.9144 21.2034 18.9552C21.2987 18.9961 21.394 19.0778 21.4621 19.1867C21.5302 19.2956 21.5847 19.4317 21.6255 19.6087C21.6663 19.7857 21.68 20.0036 21.68 20.2623V21.5829H21.6663Z" fill="white"/>
</svg>
