<svg width="37" height="37" viewBox="0 0 37 37" fill="none" xmlns="http://www.w3.org/2000/svg">
<path d="M7.9289 22.0232C6.95985 22.0232 6.16699 22.816 6.16699 23.7851V29.0708C6.16699 30.0398 6.95985 30.8327 7.9289 30.8327H13.2146C14.1837 30.8327 14.9765 30.0398 14.9765 29.0708C14.9765 28.1017 14.1837 27.3089 13.2146 27.3089H9.6908V23.7851C9.6908 22.816 8.89794 22.0232 7.9289 22.0232ZM7.9289 14.9755C8.89794 14.9755 9.6908 14.1827 9.6908 13.2136V9.68983H13.2146C14.1837 9.68983 14.9765 8.89697 14.9765 7.92792C14.9765 6.95887 14.1837 6.16602 13.2146 6.16602H7.9289C6.95985 6.16602 6.16699 6.95887 6.16699 7.92792V13.2136C6.16699 14.1827 6.95985 14.9755 7.9289 14.9755ZM27.3099 27.3089H23.786C22.817 27.3089 22.0241 28.1017 22.0241 29.0708C22.0241 30.0398 22.817 30.8327 23.786 30.8327H29.0718C30.0408 30.8327 30.8337 30.0398 30.8337 29.0708V23.7851C30.8337 22.816 30.0408 22.0232 29.0718 22.0232C28.1027 22.0232 27.3099 22.816 27.3099 23.7851V27.3089ZM22.0241 7.92792C22.0241 8.89697 22.817 9.68983 23.786 9.68983H27.3099V13.2136C27.3099 14.1827 28.1027 14.9755 29.0718 14.9755C30.0408 14.9755 30.8337 14.1827 30.8337 13.2136V7.92792C30.8337 6.95887 30.0408 6.16602 29.0718 6.16602H23.786C22.817 6.16602 22.0241 6.95887 22.0241 7.92792Z" fill="white"/>
</svg>
