<svg width="37" height="37" viewBox="0 0 37 37" fill="none" xmlns="http://www.w3.org/2000/svg">
<path d="M7.40033 11.0993C6.72199 11.0993 6.16699 11.6543 6.16699 12.3327V28.366C6.16699 29.7227 7.27699 30.8327 8.63366 30.8327H24.667C25.3453 30.8327 25.9003 30.2777 25.9003 29.5993C25.9003 28.921 25.3453 28.366 24.667 28.366H9.86699C9.18866 28.366 8.63366 27.811 8.63366 27.1327V12.3327C8.63366 11.6543 8.07866 11.0993 7.40033 11.0993ZM28.367 6.16602H13.567C12.2103 6.16602 11.1003 7.27602 11.1003 8.63268V23.4327C11.1003 24.7893 12.2103 25.8993 13.567 25.8993H28.367C29.7237 25.8993 30.8337 24.7893 30.8337 23.4327V8.63268C30.8337 7.27602 29.7237 6.16602 28.367 6.16602ZM18.5003 21.5827V10.4827L25.2467 15.5393C25.5797 15.786 25.5797 16.2793 25.2467 16.526L18.5003 21.5827Z" fill="white"/>
</svg>
