<svg width="37" height="37" viewBox="0 0 37 37" fill="none" xmlns="http://www.w3.org/2000/svg">
<path d="M18.5003 6.16602C11.6923 6.16602 6.16699 11.6913 6.16699 18.4993C6.16699 25.3073 11.6923 30.8327 18.5003 30.8327C25.3083 30.8327 30.8337 25.3073 30.8337 18.4993C30.8337 11.6913 25.3083 6.16602 18.5003 6.16602ZM19.7337 27.1327H17.267V24.666H19.7337V27.1327ZM22.2867 17.5743L21.1767 18.709C20.56 19.338 20.116 19.9053 19.894 20.7933C19.7953 21.188 19.7337 21.632 19.7337 22.1993H17.267V21.5827C17.267 21.0153 17.3657 20.4727 17.5383 19.967C17.785 19.2517 18.192 18.6103 18.71 18.0923L20.2393 16.5383C20.8067 15.9957 21.078 15.1817 20.9177 14.3183C20.7573 13.4303 20.0667 12.678 19.2033 12.4313C17.8343 12.049 16.564 12.826 16.157 13.9977C16.009 14.454 15.6267 14.7993 15.1457 14.7993H14.7757C14.0603 14.7993 13.567 14.1087 13.7643 13.418C14.2947 11.605 15.8363 10.2237 17.748 9.92768C19.6227 9.63168 21.411 10.606 22.521 12.1477C23.9763 14.158 23.5447 16.3163 22.2867 17.5743V17.5743Z" fill="white"/>
</svg>
